<svg xmlns="http://www.w3.org/2000/svg" width="32" height="32" viewBox="0 0 32 32">
  <defs>
    <linearGradient id="goldGradient" x1="0%" y1="0%" x2="100%" y2="100%">
      <stop offset="0%" stop-color="#FFD700"/>
      <stop offset="100%" stop-color="#FFA500"/>
    </linearGradient>
  </defs>
  
  <!-- 배경 원 -->
  <circle cx="16" cy="16" r="15" fill="url(#goldGradient)" stroke="#E67E00" stroke-width="1"/>
  
  <!-- 달러 기호 ($) -->
  <path d="M14 8v2h-2a2 2 0 0 0-2 2v4a2 2 0 0 0 2 2h2v2h2v-2h2a2 2 0 0 0 2-2v-1h-3v1h-3v-4h3v1h3v-1a2 2 0 0 0-2-2h-2V8h-2z" fill="#FFF"/>
  <rect x="15" y="6" width="2" height="3" fill="#FFF"/>
  <rect x="15" y="23" width="2" height="3" fill="#FFF"/>
</svg>
